<svg xmlns="http://www.w3.org/2000/svg" xmlns:xlink="http://www.w3.org/1999/xlink" width="24" height="24" viewBox="0 0 24 24"><defs><clipPath id="b"><rect width="24" height="24"/></clipPath></defs><g id="a" clip-path="url(#b)"><path d="M19.272,41.3H15.949V38.646a2.661,2.661,0,0,1,2.658-2.658h.332a.994.994,0,0,0,1-1V33a.994.994,0,0,0-1-1h-.332a6.644,6.644,0,0,0-6.646,6.646v9.968a1.994,1.994,0,0,0,1.994,1.994h5.316a1.994,1.994,0,0,0,1.994-1.994V43.3A1.994,1.994,0,0,0,19.272,41.3ZM7.31,41.3H3.987V38.646a2.661,2.661,0,0,1,2.658-2.658h.332a.994.994,0,0,0,1-1V33a.994.994,0,0,0-1-1H6.646A6.644,6.644,0,0,0,0,38.646v9.968a1.994,1.994,0,0,0,1.994,1.994H7.31A1.994,1.994,0,0,0,9.3,48.614V43.3A1.994,1.994,0,0,0,7.31,41.3Z" transform="translate(1.367 -29.304)" opacity="0.996"/></g></svg>