<svg xmlns="http://www.w3.org/2000/svg" xmlns:xlink="http://www.w3.org/1999/xlink" width="24" height="24" viewBox="0 0 24 24"><defs><clipPath id="b"><rect width="24" height="24"/></clipPath></defs><g id="a" clip-path="url(#b)"><path d="M.816,63.673H22.041a.816.816,0,0,0,.816-.816V60.816A.816.816,0,0,0,22.041,60H.816A.816.816,0,0,0,0,60.816v2.041A.816.816,0,0,0,.816,63.673Zm0,8.163H22.041a.816.816,0,0,0,.816-.816V68.98a.816.816,0,0,0-.816-.816H.816A.816.816,0,0,0,0,68.98V71.02A.816.816,0,0,0,.816,71.837ZM.816,80H22.041a.816.816,0,0,0,.816-.816V77.143a.816.816,0,0,0-.816-.816H.816A.816.816,0,0,0,0,77.143v2.041A.816.816,0,0,0,.816,80Z" transform="translate(0.571 -58)" fill="#fff"/></g></svg>